<?xml version="1.0" encoding="utf-8"?>
<!-- Generator: Adobe Illustrator 24.1.2, SVG Export Plug-In . SVG Version: 6.00 Build 0)  -->
<svg version="1.1" id="Layer_1" xmlns="http://www.w3.org/2000/svg" xmlns:xlink="http://www.w3.org/1999/xlink" x="0px" y="0px"
	 viewBox="0 0 80 80" style="enable-background:new 0 0 80 80;" xml:space="preserve">
<style type="text/css">
	.st0{fill:#F15A22;}
</style>
<path class="st0" d="M16.46,18.06l-1.4,1.4c-0.44,0.44-0.44,1.16,0,1.6l3.6,3.6l-0.67,0.67c-0.44,0.44-0.44,1.16,0,1.6c0,0,0,0,0,0
	l2.13,2.13l-0.06,0.06c-1.18,1.18-1.18,3.09,0,4.27l35.47,35.47c1.18,1.18,3.09,1.18,4.27,0l2.26-2.26l4.7,4.7l-2.13,2.13
	c-1.25,1.25-1.25,3.28,0,4.54c1.25,1.25,3.28,1.25,4.54,0l8.8-8.8c1.25-1.25,1.25-3.28,0-4.54c-1.25-1.25-3.28-1.25-4.54,0
	l-2.13,2.13l-4.7-4.7l2.26-2.26c1.18-1.18,1.18-3.09,0-4.27L54.85,41.51l-3.57-3.57l-3.57-3.57l-3.57-3.57l-3.57-3.57l-7.17-7.17
	c-1.18-1.18-3.09-1.18-4.27,0c0,0,0,0,0,0l-0.06,0.06l-2.13-2.13c-0.44-0.44-1.16-0.44-1.6,0c0,0,0,0,0,0l-0.67,0.67l-3.6-3.6
	c-0.44-0.44-1.16-0.44-1.6,0l-1.4,1.4L3.02,1.42c-0.44-0.44-1.16-0.44-1.6,0s-0.44,1.16,0,1.6L16.46,18.06z M75.04,66.24
	c0.37-0.37,0.96-0.37,1.33,0c0.37,0.37,0.37,0.96,0,1.33l0,0l-8.8,8.8c-0.37,0.36-0.97,0.35-1.33-0.02c-0.36-0.37-0.36-0.95,0-1.31
	l2.93-2.93l0.84-0.84L75.04,66.24z M69.7,68.37l-0.97,0.97l-0.36,0.36l-4.7-4.7L65,63.67L69.7,68.37z M31.26,21.44
	c0.2,0,0.39,0.08,0.53,0.22l6.37,6.37l-3.6,3.6c-0.44,0.44-0.44,1.16,0,1.6c0.44,0.44,1.16,0.44,1.6,0l3.6-3.6l1.97,1.97l-1.4,1.4
	c-0.44,0.44-0.44,1.16,0,1.6c0.44,0.44,1.16,0.44,1.6,0l1.4-1.4l1.97,1.97l-3.6,3.6c-0.45,0.44-0.45,1.16-0.01,1.6
	c0.44,0.45,1.16,0.45,1.6,0.01c0,0,0.01-0.01,0.01-0.01l3.6-3.6l1.97,1.97l-1.4,1.4c-0.45,0.44-0.46,1.15-0.02,1.6
	c0.44,0.45,1.15,0.46,1.6,0.02c0.01-0.01,0.01-0.01,0.02-0.02l1.4-1.4l1.97,1.97l-3.6,3.6c-0.45,0.44-0.46,1.15-0.02,1.6
	c0.44,0.45,1.15,0.46,1.6,0.02c0.01-0.01,0.01-0.01,0.02-0.02l3.6-3.6l1.97,1.97l-1.4,1.4c-0.45,0.44-0.45,1.16-0.01,1.6
	c0.44,0.45,1.16,0.45,1.6,0.01c0,0,0.01-0.01,0.01-0.01l1.4-1.4l1.97,1.97l-3.6,3.6c-0.44,0.44-0.44,1.16,0,1.6
	c0.44,0.44,1.16,0.44,1.6,0l3.6-3.6l6.08,6.08c0.3,0.3,0.3,0.77,0,1.07c0,0,0,0,0,0l-9.06,9.06c-0.3,0.29-0.77,0.29-1.07,0
	L21.66,31.8c-0.29-0.3-0.29-0.77,0-1.07l9.06-9.06C30.87,21.52,31.06,21.44,31.26,21.44L31.26,21.44z M27.46,21.73l-5.73,5.73
	l-1.33-1.33l5.73-5.73L27.46,21.73z M20.26,17.46l2.8,2.8l-2.8,2.8l-2.8-2.8L20.26,17.46z"/>
</svg>
