<svg xmlns="http://www.w3.org/2000/svg" width="65.931" height="82.258" viewBox="0 0 65.931 82.258"><defs><style>.a{fill:#f15a22;}</style></defs><g transform="translate(-5.941 0.001)"><path class="a" d="M69.269,35.961l-.484-.113.338-.361a3.376,3.376,0,0,0-.163-4.761l-1.1-1.027a3.373,3.373,0,0,0-4.761.163l-3.35,3.591a27.539,27.539,0,0,0-8.362-7.739,10.162,10.162,0,0,0,3.309-1.043h7.563a5.494,5.494,0,0,0,0-10.989h-8.24a8.843,8.843,0,0,0-3.8-.725.687.687,0,0,1-.636-.475,19.616,19.616,0,0,0-.761-1.891L50.09,9.326a5.5,5.5,0,0,0,0-7.769,5.624,5.624,0,0,0-7.77,0L40.837,3.039A10.02,10.02,0,0,0,32.556,4.3a.566.566,0,0,1-.728-.184,7.836,7.836,0,0,0-2.575-2.439c-1.619-.821-4.026-.054-5.218.757-1.089.742-1.111,2.346-.809,4.529a14.918,14.918,0,0,0,.621,2.4c.157.493.387,1.22.481,1.7l.007.31c0,.091,0,.141,0,.154a1.42,1.42,0,0,1-.118.126,1.288,1.288,0,0,1-.137.136c-.052.043-.12.081-.181.122s-.128.089-.2.132-.155.076-.235.113-.159.08-.249.117-.2.071-.3.107-.169.065-.261.092c-.117.036-.242.066-.364.1-.081.021-.159.045-.242.063-.143.032-.287.055-.433.078-.066.011-.132.026-.2.036-.162.022-.327.034-.492.045-.045,0-.092.011-.136.012a5.288,5.288,0,0,1-.61-.005c-.315-.019-.617-.03-.909-.027L12.757,6.254a3.453,3.453,0,0,0-4.764,0L6.926,7.32a3.371,3.371,0,0,0,0,4.762l6.632,6.63c-.008.141-.015.284-.019.434-.1,4.3-.2,8.74-1.635,12.5-.262.69-.508,1.4-.744,2.129-.2.609-.378,1.213-.548,1.816-.019.069-.041.13-.06.2l-.12.429c-.052.2-.115.393-.165.588L9.92,38.052,10,38.034c-2.46,11.184.312,21.178,8.324,29.774,9.04,9.7,20.835,14.449,35.944,14.449q2.617,0,5.368-.19c4.983-.345,8.014-3.548,8.107-8.568a78.767,78.767,0,0,0-.721-11.7h0c-.217-1.643-.4-3.3-.588-4.964a88.9,88.9,0,0,0-2.239-13.59l3.207.746a3.366,3.366,0,0,0,4.042-2.516l.342-1.467A3.37,3.37,0,0,0,69.269,35.961ZM52.643,16.431h4.884a5.323,5.323,0,0,0,0,5.494H52.643a2.747,2.747,0,1,1,0-5.494Zm12.362,2.747a2.747,2.747,0,1,1-2.747-2.747A2.75,2.75,0,0,1,65.005,19.178ZM8.869,10.14A.671.671,0,0,1,8.687,9.7h0a.629.629,0,0,1,.041-.212.612.612,0,0,1,.141-.225L9.937,8.2a.617.617,0,0,1,.875,0l7.375,7.375.619-.04a8.811,8.811,0,0,1,1.2.005c.232.014.484.016.749.008.158-.005.328-.022.494-.036.114-.01.223-.015.341-.029.172-.021.346-.051.522-.081.125-.021.247-.038.374-.065.166-.033.33-.077.5-.12.14-.036.28-.07.419-.113.154-.047.3-.1.455-.154s.3-.109.442-.17.271-.121.4-.185c.15-.073.294-.151.434-.234.12-.07.235-.143.346-.22.137-.093.265-.194.39-.3.1-.084.2-.166.287-.257.041-.041.092-.076.132-.118,2.306,1.874,4.251,4.581,3.071,8.009-1.337,3.885-8.449,10.031-15.406,12.605.168-.485.326-.967.512-1.459,1.6-4.2,1.713-9.1,1.815-13.416.007-.321.033-.606.06-.891l.059-.643Zm54.832,47c.187,1.681.374,3.358.595,5.02a75.673,75.673,0,0,1,.7,11.288c-.066,3.548-2.036,5.637-5.548,5.878C42.6,80.487,29.815,76.1,20.331,65.933c-7.773-8.338-10.2-17.75-7.354-28.656,7.864-2.224,17.094-9.4,18.987-14.9,1.486-4.319-.277-8.485-4.953-11.8a15.534,15.534,0,0,0-.547-2.054,13.212,13.212,0,0,1-.518-1.941,8.835,8.835,0,0,1-.124-2.029,3.415,3.415,0,0,1,2.185-.43,5.642,5.642,0,0,1,1.624,1.639,3.321,3.321,0,0,0,4.385.863A7.214,7.214,0,0,1,40.7,5.894l.838.33L44.261,3.5a2.747,2.747,0,0,1,3.886,3.885l-2.681,2.681.478.9a16.642,16.642,0,0,1,1.043,2.409,3.464,3.464,0,0,0,1.722,1.974c-.12.122-.214.265-.321.4s-.221.25-.315.389a5.1,5.1,0,0,0-.282.519c-.071.137-.157.265-.217.408a5.518,5.518,0,0,0-.2.657c-.034.124-.087.239-.111.365a5.317,5.317,0,0,0,.026,2.283c.027.125.076.24.113.361a5.323,5.323,0,0,0,.264.736c.062.133.136.255.207.383a5.7,5.7,0,0,0,.379.6c.091.122.188.235.288.349a5.431,5.431,0,0,0,.486.488c.065.056.114.128.181.181A2.381,2.381,0,0,0,48.075,25.1a2.407,2.407,0,0,0,1.185,2.548,25.2,25.2,0,0,1,8.31,7.46l.357.552c.038.058.073.118.111.176a27.126,27.126,0,0,1,2.847,5.972l.247.721h.007C62.582,47.082,63.136,52.047,63.7,57.136ZM69.11,39.381l-.342,1.467a.621.621,0,0,1-.744.464L63.231,40.2a.154.154,0,0,1-.007-.018,30.522,30.522,0,0,0-1.953-4.328l3.839-4.111a.619.619,0,0,1,.43-.2.661.661,0,0,1,.445.168l1.1,1.026a.622.622,0,0,1,.029.878l-3.578,3.835,5.108,1.188A.625.625,0,0,1,69.11,39.381Z" transform="translate(0 0)"/><path class="a" d="M51.021,53.16l-3.438,2.293a50.506,50.506,0,0,1-6.3-3.9h5a1.374,1.374,0,1,0,0-2.747H38.046c-.03,0-.055.015-.085.016a22.7,22.7,0,0,1-6.89-10.939,18.693,18.693,0,0,1-.533-5.786c.016-.011.037-.012.054-.023,2.413-1.687,5.229-1.681,8.378.007a18.619,18.619,0,0,1,3.352,2.364,1.366,1.366,0,0,0-.152.622v5.494a1.374,1.374,0,1,0,2.747,0V37.048a33.442,33.442,0,0,1,2.3,2.928A1.374,1.374,0,1,0,49.469,38.4a35.608,35.608,0,0,0-3.043-3.783l3.433-2.574a1.373,1.373,0,0,0-1.647-2.2l-3.764,2.823a21.858,21.858,0,0,0-4.183-3.012c-3.277-1.758-6.431-2.04-9.251-.9a21.72,21.72,0,0,1,2.673-6.655,1.374,1.374,0,0,0-2.269-1.551,23.8,23.8,0,0,0-3.154,17.317,1.34,1.34,0,0,0-.595.294c-6.078,5.455-6.3,15.2-.591,21.953l-.022,3.786a1.373,1.373,0,0,0,1.365,1.382h.008A1.373,1.373,0,0,0,29.8,63.922l.015-2.755h2.732a1.374,1.374,0,1,0,0-2.747h-3.3c-4.674-5.456-4.731-13.217-.185-17.772a26.7,26.7,0,0,0,7.6,10.715V58.42a1.374,1.374,0,0,0,2.747,0V53.594a53,53,0,0,0,6.868,4.287v3.287a1.374,1.374,0,1,0,2.747,0V57.782l3.51-2.339a1.372,1.372,0,1,0-1.523-2.283Z" transform="translate(6.354 7.457)"/></g></svg>