<svg xmlns="http://www.w3.org/2000/svg" width="85.232" height="79.222" viewBox="0 0 85.232 79.222"><defs><style>.a{fill:#f15a22;}</style></defs><path class="a" d="M85.088,25.5C83.847,11.808,74.163,1.881,62.043,1.881A22.914,22.914,0,0,0,43.39,11.7a1.2,1.2,0,0,1-1,.553,1.134,1.134,0,0,1-1-.562,21.874,21.874,0,0,0-18.2-9.805C11.065,1.881,1.383,11.808.14,25.5a24.375,24.375,0,0,0,.725,8.971,38.492,38.492,0,0,0,11.8,19.69L42.359,81.1l30.2-26.947a40.844,40.844,0,0,0,4.2-4.422c.024-.024.037-.053.059-.078a37.816,37.816,0,0,0,7.541-15.189A24.354,24.354,0,0,0,85.088,25.5ZM42.38,76.8,14.813,51.787c-.569-.514-1.106-1.051-1.636-1.593h4.951a1.6,1.6,0,0,0,1.454-.936l6.44-14.168,8.2,20.492a1.6,1.6,0,0,0,1.382,1c.034,0,.069,0,.1,0a1.6,1.6,0,0,0,1.4-.821l6.64-11.952,3.371,5.664a1.6,1.6,0,0,0,2.935-.489l4.6-21.914,3.438,21.774a1.6,1.6,0,0,0,1.577,1.348H72.051c-.529.54-1.064,1.074-1.63,1.587ZM81.252,33.733A34.54,34.54,0,0,1,74.836,47h-13.8L56.454,17.991a1.6,1.6,0,0,0-1.537-1.348,1.528,1.528,0,0,0-1.6,1.269l-5.55,26.41-2.7-4.531a1.6,1.6,0,0,0-2.769.042L35.94,51.274,27.6,30.429a1.6,1.6,0,0,0-1.446-1,1.571,1.571,0,0,0-1.492.936L17.1,47H10.4A34.533,34.533,0,0,1,3.979,33.73,21.29,21.29,0,0,1,3.3,26l.024-.161C4.388,13.806,12.744,5.075,23.187,5.075A18.722,18.722,0,0,1,38.752,13.49a4.369,4.369,0,0,0,3.609,1.952A4.507,4.507,0,0,0,46,13.536a19.722,19.722,0,0,1,16.041-8.46c10.443,0,18.8,8.733,19.888,20.917A21.118,21.118,0,0,1,81.252,33.733Z" transform="translate(0.001 -1.881)"/></svg>