<?xml version="1.0" encoding="utf-8"?>
<!-- Generator: Adobe Illustrator 24.1.2, SVG Export Plug-In . SVG Version: 6.00 Build 0)  -->
<svg version="1.1" id="Capa_1" xmlns="http://www.w3.org/2000/svg" xmlns:xlink="http://www.w3.org/1999/xlink" x="0px" y="0px"
	 viewBox="0 0 512 512" style="enable-background:new 0 0 512 512;" xml:space="preserve">
<style type="text/css">
	.st0{fill:#F15A22;}
</style>
<g>
	<path class="st0" d="M62,327.13l-9.54,9.54c-2.93,2.93-2.93,7.68,0,10.61c2.93,2.93,7.68,2.93,10.61,0l9.54-9.54
		c2.93-2.93,2.93-7.68,0-10.61C69.68,324.2,64.93,324.2,62,327.13z M80.86,390.65c-2.93,2.93-2.93,7.68,0,10.61l6.25,6.24
		c2.93,2.93,7.68,2.93,10.61,0c2.93-2.93,2.93-7.68,0-10.61l-6.25-6.24C88.54,387.73,83.79,387.73,80.86,390.65z M489.99,328.06
		V186.34c0-19.46-15.83-35.3-35.3-35.3h-34.6c-4.14,0-7.5,3.36-7.5,7.5c0,4.14,3.36,7.5,7.5,7.5h34.6c11.19,0,20.3,9.11,20.3,20.3
		v14.82H287.53c-3.72-11.74-8.16-23.48-13.26-35.12h107.96c4.14,0,7.5-3.36,7.5-7.5c0-4.14-3.36-7.5-7.5-7.5H267.32
		C234.84,84.76,184.9,30.59,143.13,4.35C131.39-3.04,116.19-0.83,107,9.6c-9.62,10.92-9.19,27.36,1.01,38.24
		c22.59,24.09,47.28,60.54,63.28,103.2H35.32c-19.46,0-35.3,15.83-35.3,35.3v210.38c0,46.24,37.62,83.85,83.85,83.85h23.75
		c4.14,0,7.5-3.36,7.5-7.5s-3.36-7.5-7.5-7.5H83.87c-37.97,0-68.86-30.89-68.86-68.86V285.79c39.25-11.78,110.2-7.71,110.2,13.29
		c0,86.13,79.99,147.18,157.07,120.37c3.51,17.03,10.77,32.7,20.87,46.12H143.41c-4.14,0-7.5,3.36-7.5,7.5s3.36,7.5,7.5,7.5h173.21
		c20.77,19.48,48.67,31.43,79.33,31.43c63.99,0,116.04-52.06,116.04-116.04C511.98,370.62,503.82,347.16,489.99,328.06z
		 M474.99,216.16v33.66c-48.51-17.24-112.99,2.55-123.68,39.03c-7.37,3.08-14.35,6.9-20.86,11.37
		c0.32-27.59-10.75-53.22-29.24-70.67c-3.88-3.66-6.93-8.24-9-13.38L474.99,216.16L474.99,216.16z M474.99,265.91v45.17
		c-28.09-26.18-66.58-36.44-103.25-28.63C389.15,262.12,436.59,249.47,474.99,265.91z M15.02,186.34c0-11.19,9.11-20.3,20.3-20.3
		h141.15c3.58,11.38,6.48,23.12,8.54,35.12H15.02L15.02,186.34L15.02,186.34z M280.19,404.25
		c-67.73,25.86-139.97-27.82-139.97-105.17c0-39.63-84.57-39.37-125.2-28.84v-54.07H187.1c0.1,0.91,0.21,1.82,0.3,2.73
		c0.63,6.48-1.43,13.08-5.66,18.11c-14.32,17.02-22.2,39.07-22.2,62.08c0,50.92,38.34,92.34,85.46,92.34
		c12.47,0,24.53-2.87,35.62-8.38C279.8,390.42,279.7,397.36,280.19,404.25z M245,376.42c-38.85,0-70.46-34.69-70.46-77.34
		c0-19.49,6.64-38.11,18.68-52.43c6.8-8.09,10.13-18.73,9.11-29.21c-7.24-74.76-47.82-141.93-83.38-179.86
		c-4.8-5.12-5.11-13.06-0.7-18.07c4.3-4.88,11.4-5.92,16.89-2.47C189.8,51.37,252.49,130.89,276.32,216
		c2.66,9.49,7.71,17.95,14.6,24.45c18.55,17.51,28.2,44.99,23.25,73.26c-13.6,13.53-23.88,30.4-29.48,49.26
		C272.95,371.77,259.29,376.42,245,376.42z M395.94,497c-55.72,0-101.04-45.33-101.04-101.04c0-55.72,45.33-101.05,101.04-101.05
		c55.72,0,101.04,45.33,101.04,101.05C496.98,451.67,451.65,497,395.94,497z M454.56,367.02h-29.69v-29.69
		c0-7.27-5.91-13.19-13.19-13.19h-31.5c-7.27,0-13.19,5.91-13.19,13.19v29.69h-29.69c-7.27,0-13.19,5.91-13.19,13.19v31.5
		c0,7.27,5.91,13.19,13.19,13.19H367v29.69c0,7.27,5.91,13.19,13.19,13.19h31.5c7.27,0,13.19-5.91,13.19-13.19v-29.69h29.69
		c7.27,0,13.19-5.91,13.19-13.19v-31.5C467.75,372.94,461.83,367.02,454.56,367.02z M452.75,409.89h-29.69
		c-7.27,0-13.19,5.91-13.19,13.19v29.69H382v-29.69c0-7.27-5.92-13.19-13.19-13.19h-29.69v-27.88h29.69
		c7.27,0,13.19-5.91,13.19-13.19v-29.69h27.87v29.69c0,7.27,5.92,13.19,13.19,13.19h29.69V409.89z M154.52,442.35l10.4-10.4
		c2.93-2.93,2.93-7.68,0-10.61c-2.93-2.93-7.68-2.93-10.61,0l-10.4,10.4c-2.93,2.93-2.93,7.68,0,10.61
		C146.85,445.28,151.59,445.28,154.52,442.35z"/>
</g>
</svg>
