<?xml version="1.0" encoding="utf-8"?>
<!-- Generator: Adobe Illustrator 24.1.2, SVG Export Plug-In . SVG Version: 6.00 Build 0)  -->
<svg version="1.1" id="Capa_1" xmlns="http://www.w3.org/2000/svg" xmlns:xlink="http://www.w3.org/1999/xlink" x="0px" y="0px"
	 viewBox="0 0 60 60" style="enable-background:new 0 0 60 60;" xml:space="preserve">
<style type="text/css">
	.st0{fill:#F15A22;}
</style>
<g>
	<path class="st0" d="M33.87,0.26c0,0-0.01,0-0.01,0c-0.02,0-0.04,0-0.06,0c-0.59-0.08-1.18-0.13-1.78-0.17
		c-0.06,0-0.12-0.01-0.17-0.01C31.23,0.03,30.62,0,30,0C13.46,0,0,13.46,0,30c0,14.02,9.45,25.72,22.47,29.04
		c0.03,0.01,0.06,0.01,0.08,0.02c0.37,0.09,0.74,0.18,1.12,0.26c0.18,0.04,0.36,0.08,0.54,0.11c0.23,0.04,0.47,0.09,0.7,0.13
		c0.31,0.05,0.62,0.1,0.93,0.15c0.12,0.02,0.24,0.03,0.36,0.05c0.41,0.05,0.82,0.1,1.24,0.13c0.04,0,0.08,0.01,0.12,0.01
		c0.47,0.04,0.95,0.07,1.43,0.08c0,0,0,0,0.01,0c0.01,0,0.02,0,0.03,0c0,0,0,0,0,0C29.35,59.99,29.67,60,30,60
		c16.54,0,30-13.46,30-30C60,14.77,48.59,2.16,33.87,0.26z M30,2c0.97,0,1.98,0.06,3.01,0.17l1,2.6
		c0.05,0.14,5.45,14.07,11.86,25.08c1.97,3.38,2.38,6.29,1.22,8.65c-1.82,3.71-7.09,5.33-9.92,5.7l-0.28,0.04
		c-3.11,0.41-6.33,0.83-8.02,3.05c-1.01,1.32-1.35,3.08-1.03,5.38c0.13,0.93,0.27,2.16,0.24,3.4l-0.04,1.86c-0.01,0-0.02,0-0.03,0
		c-0.42-0.03-0.85-0.07-1.26-0.12c-0.08-0.01-0.16-0.02-0.25-0.03c-0.34-0.04-0.69-0.09-1.03-0.14c-0.22-0.04-0.43-0.08-0.65-0.12
		c-0.19-0.04-0.39-0.07-0.58-0.11c-12.2-2.56-21.5-13.08-22.2-25.85c0-0.04-0.01-0.08-0.01-0.12C2.01,30.95,2,30.48,2,30
		C2,14.56,14.56,2,30,2z M30.05,58l0.04-1.89c0.03-1.38-0.12-2.71-0.26-3.71c-0.24-1.75-0.03-3.02,0.64-3.9
		c1.19-1.55,3.86-1.9,6.7-2.28l0.29-0.04c4-0.53,9.4-2.63,11.45-6.8c1.47-3,1.04-6.54-1.29-10.54C41.28,17.97,35.94,4.18,35.88,4.04
		l-0.59-1.54C48.21,4.99,58,16.37,58,30C58,45.42,45.46,57.97,30.05,58z"/>
	<path class="st0" d="M26.23,41.41c7.79-1.43,10.97-1.36,12.22-1.17c-0.76,0.32-2,0.56-2.81,0.19c-0.51-0.23-1.1-0.01-1.33,0.49
		c-0.23,0.5-0.01,1.1,0.49,1.33c0.56,0.26,1.21,0.37,1.87,0.37c1.52,0,3.11-0.6,3.86-1.41c0.52-0.56,0.64-1.25,0.32-1.83
		c-0.37-0.67-1.34-2.44-14.99,0.07c-5.72,1.06-9.51,0.52-10.94-1.53c-1.93-2.75,0.43-8.08,1.5-9.9c0.28-0.48,0.12-1.09-0.35-1.37
		c-0.48-0.28-1.09-0.12-1.37,0.35c-0.18,0.31-4.47,7.69-1.42,12.06C15.23,41.84,19.59,42.63,26.23,41.41z"/>
</g>
</svg>
