<?xml version="1.0" encoding="utf-8"?>
<!-- Generator: Adobe Illustrator 24.1.2, SVG Export Plug-In . SVG Version: 6.00 Build 0)  -->
<svg version="1.1" id="Capa_1" xmlns="http://www.w3.org/2000/svg" xmlns:xlink="http://www.w3.org/1999/xlink" x="0px" y="0px"
	 viewBox="0 0 388.8 341.62" style="enable-background:new 0 0 388.8 341.62;" xml:space="preserve">
<style type="text/css">
	.st0{fill:#F15A22;}
</style>
<g>
	<g>
		<g>
			<path class="st0" d="M262.48,159.26c-0.03,0-0.05,0-0.08,0h-32.56v-32.64c0.04-6.58-5.26-11.96-11.84-12c-0.03,0-0.05,0-0.08,0
				h-47.04c-6.58,0-11.92,5.34-11.92,11.92v32.64H126.4c-6.58-0.04-11.96,5.26-12,11.84c0,0.05,0,0.11,0,0.16v46.96
				c0,6.58,5.34,11.92,11.92,11.92h32.64v32.56c-0.04,6.58,5.26,11.96,11.84,12c0.03,0,0.05,0,0.08,0h46.96
				c6.58,0,11.92-5.34,11.92-11.92l0,0v-32.64h32.64c6.58,0.04,11.96-5.26,12-11.84c0-0.03,0-0.05,0-0.08v-46.96
				C274.4,164.6,269.06,159.26,262.48,159.26z M258.4,214.06h-36.56c-4.42,0-8,3.58-8,8v36.56h-38.88v-36.56c0-4.42-3.58-8-8-8
				H130.4v-38.8h36.56c4.42,0,8-3.58,8-8v-36.64h38.8v36.56c0,4.42,3.58,8,8,8h36.64V214.06z"/>
		</g>
	</g>
	<g>
		<g>
			<path class="st0" d="M333.6,54.78L333.6,54.78h-65.92V26.62c0.41-12.85-9.67-23.6-22.52-24.02c-0.65-0.02-1.31-0.01-1.96,0.02
				h-97.6c-12.84-0.67-23.79,9.2-24.46,22.04c-0.03,0.65-0.04,1.31-0.02,1.96v28H55.2C29.76,54.62,0,69.1,0,109.82v174
				c0,40.72,29.76,55.2,55.2,55.2h278.4c25.44,0,55.2-14.48,55.2-55.2V109.98C388.8,69.26,359.12,54.78,333.6,54.78z M137.12,26.62
				c0-2.32,0-8.56,8.56-8.56h97.52c8.56,0,8.56,6.16,8.56,8.56v28H137.12V26.62z M372.8,283.82c0,35.36-27.36,39.2-39.2,39.2H55.2
				c-11.76,0-39.2-3.84-39.2-39.2V109.98c0-35.36,27.36-39.2,39.2-39.2h278.4c11.76,0,39.2,3.84,39.2,39.2V283.82L372.8,283.82z"/>
		</g>
	</g>
</g>
</svg>
