<svg xmlns="http://www.w3.org/2000/svg" width="73.115" height="80.555" viewBox="0 0 73.115 80.555"><defs><style>.a{fill:#f16530;}</style></defs><g transform="translate(-2.747 -0.001)"><path class="a" d="M73.924,30.72c-1.048-1.629-1.633-5.162-1.5-7.311.3-5.021-2.363-10.006-6.486-12.122a11.107,11.107,0,0,0-2.141-.8c-1.085-.313-1.533-.443-1.944-1.295C59.688,4.7,57.3,4.075,52.76,4.369c-.425.08-.991-.623-1.575-1.246A7.3,7.3,0,0,0,46.714.371L46.03.3a9.6,9.6,0,0,0-6.76,2.5A9.852,9.852,0,0,0,36.712.854C34.921-.1,33.244-.259,32.043.4a8.687,8.687,0,0,0-4.461,2.744c-.79.781-1.284,1.279-1.735,1.224-4.539-.291-6.926.337-9.089,4.827-.409.852-.857.982-1.942,1.295a11.173,11.173,0,0,0-2.141.8c-4.123,2.117-6.79,7.1-6.486,12.122.13,2.151-.455,5.682-1.5,7.311a13,13,0,0,0,0,13.655c.4.62.985,1.342,1.662,2.179,1.208,1.493,3.232,3.989,3.163,5.132-.307,5.06,2.781,10.891,6.883,13,.738.379.863.763,1.142,1.923a10.88,10.88,0,0,0,.761,2.3,6.607,6.607,0,0,0,4.139,3.469c1.268.481,1.792.681,1.984,2.071.624,4.524,3.471,6.112,6.081,6.112.149,0,.3-.005.444-.015,3.2-.221,6.551-2.67,8.361-6.451,1.809,3.783,5.16,6.232,8.361,6.451.146.009.3.015.444.015,2.61,0,5.457-1.59,6.081-6.112.192-1.39.716-1.59,1.984-2.071a6.612,6.612,0,0,0,4.14-3.469,10.971,10.971,0,0,0,.76-2.3c.28-1.159.4-1.544,1.142-1.923,4.1-2.106,7.189-7.936,6.883-13-.069-1.143,1.954-3.641,3.163-5.132.677-.837,1.262-1.559,1.662-2.179A13,13,0,0,0,73.924,30.72ZM30.759,77.84c-2,.1-3.3-1.2-3.656-3.765-.412-2.98-2.315-3.7-3.7-4.233a3.97,3.97,0,0,1-2.661-2.112,8.463,8.463,0,0,1-.569-1.761c0-.007,0-.014-.005-.02a1.326,1.326,0,0,0,.18-.637,6.78,6.78,0,0,1,6.772-6.772,1.354,1.354,0,1,0,0-2.709,9.5,9.5,0,0,0-9.062,6.7,4.807,4.807,0,0,0-.424-.255c-3.125-1.6-5.655-6.474-5.416-10.422.133-2.194-1.935-4.749-3.761-7-.6-.742-1.169-1.442-1.487-1.94a10.2,10.2,0,0,1,0-10.724c1.413-2.2,2.09-6.271,1.927-8.942-.237-3.918,1.873-7.933,5.019-9.549a8.945,8.945,0,0,1,1.655-.6,8.259,8.259,0,0,0,1.747-.665,1.34,1.34,0,0,0,.32.065,5.423,5.423,0,0,1,5.418,5.418,1.354,1.354,0,0,0,2.709,0A8.136,8.136,0,0,0,19.4,9.982C20.612,7.613,21.638,7,24,7c.493,0,1.046.026,1.67.066,1.684.1,2.816-1.013,3.815-2a5.892,5.892,0,0,1,3.244-2.04l.446-.083.211-.2a2.924,2.924,0,0,1,2.055.494,4.935,4.935,0,0,1,2.508,2.473V16.647A10.846,10.846,0,0,0,28.47,27.389a8.135,8.135,0,0,1-8.126,8.126,1.354,1.354,0,0,0,0,2.709A10.848,10.848,0,0,0,31.179,27.389a8.134,8.134,0,0,1,6.772-8V68.021C37.951,74.025,33.7,77.637,30.759,77.84ZM71.645,42.91c-.318.5-.886,1.2-1.487,1.94-.547.676-1.112,1.38-1.637,2.093A10.846,10.846,0,0,0,58.266,39.58a8.135,8.135,0,0,1-8.126-8.126,1.354,1.354,0,1,0-2.709,0A10.848,10.848,0,0,0,58.266,42.288a8.135,8.135,0,0,1,8.127,8.126,1.342,1.342,0,0,0,.091.448,3.868,3.868,0,0,0-.088.989c.238,3.948-2.292,8.82-5.416,10.422-.156.08-.287.169-.424.255a9.5,9.5,0,0,0-9.062-6.7,1.354,1.354,0,1,0,0,2.709,6.78,6.78,0,0,1,6.772,6.772,1.326,1.326,0,0,0,.18.637c0,.007,0,.014-.005.02a8.563,8.563,0,0,1-.568,1.761,3.98,3.98,0,0,1-2.661,2.112c-1.39.528-3.294,1.253-3.7,4.233-.355,2.567-1.67,3.866-3.656,3.765-2.939-.2-7.192-3.814-7.192-9.818V5.719c0-1.021,1.975-2.5,4.782-2.689l.635.012c1.237,0,2.007.729,3.13,1.93.967,1.033,2.079,2.177,3.729,2.1,3.635-.23,4.822.056,6.3,2.966A6.765,6.765,0,0,0,54.2,16.556a1.354,1.354,0,1,0,2.709,0,4.068,4.068,0,0,1,4.063-4.063,1.252,1.252,0,0,0,.32-.065,8.26,8.26,0,0,0,1.747.665,8.945,8.945,0,0,1,1.655.6c3.145,1.614,5.256,5.63,5.019,9.549-.163,2.671.515,6.744,1.927,8.942A10.2,10.2,0,0,1,71.645,42.91Z"/><path class="a" d="M27.53,27.963a1.353,1.353,0,0,0-1.915,0,9.784,9.784,0,0,0-.83,12.914,9.784,9.784,0,0,0,.83,12.914,1.354,1.354,0,0,0,1.915-1.915,7.1,7.1,0,0,1,0-10.042,1.353,1.353,0,0,0,0-1.915,7.1,7.1,0,0,1,0-10.042A1.355,1.355,0,0,0,27.53,27.963Z" transform="translate(7.086 9.769)"/><path class="a" d="M35.253,31.306a1.353,1.353,0,0,0,0,1.915,6.468,6.468,0,0,1,0,9.133,9.159,9.159,0,0,0,0,12.962A1.354,1.354,0,0,0,37.168,53.4a6.451,6.451,0,0,1,0-9.131,9.178,9.178,0,0,0,0-12.963A1.353,1.353,0,0,0,35.253,31.306Z" transform="translate(10.568 10.954)"/><path class="a" d="M52.581,25.048A6.472,6.472,0,0,1,45.1,19.805,9.163,9.163,0,0,0,34.49,12.363a1.355,1.355,0,0,0,.469,2.67,6.451,6.451,0,0,1,7.478,5.242,9.159,9.159,0,0,0,10.615,7.444,1.355,1.355,0,0,0-.47-2.67Z" transform="translate(10.853 4.331)"/><path class="a" d="M15.72,24.21a5.486,5.486,0,0,0,5.143-3.58,1.354,1.354,0,1,0-2.541-.939,2.769,2.769,0,0,1-3.554,1.637A5.488,5.488,0,0,0,7.736,24.57a1.355,1.355,0,0,0,2.541.94,2.765,2.765,0,0,1,3.554-1.637A5.5,5.5,0,0,0,15.72,24.21Z" transform="translate(1.738 6.665)"/><path class="a" d="M18.548,40.892a2.77,2.77,0,0,1-1.639-3.551h0a5.484,5.484,0,0,0-3.241-7.033,1.355,1.355,0,0,0-.94,2.542A2.769,2.769,0,0,1,14.367,36.4v0a5.485,5.485,0,0,0,3.241,7.031,1.355,1.355,0,0,0,.94-2.542Z" transform="translate(3.224 10.711)"/></g></svg>