<?xml version="1.0" encoding="utf-8"?>
<!-- Generator: Adobe Illustrator 24.1.2, SVG Export Plug-In . SVG Version: 6.00 Build 0)  -->
<svg version="1.1" id="Capa_1" xmlns="http://www.w3.org/2000/svg" xmlns:xlink="http://www.w3.org/1999/xlink" x="0px" y="0px"
	 viewBox="0 0 512 367" style="enable-background:new 0 0 512 367;" xml:space="preserve">
<style type="text/css">
	.st0{fill:#F15A22;}
</style>
<g>
	<g>
		<g>
			<path class="st0" d="M203.07,186.43c-3.9-3.91-10.24-3.91-14.14,0c-3.91,3.9-3.91,10.24,0,14.14c3.9,3.91,10.24,3.91,14.14,0
				C206.98,196.67,206.98,190.33,203.07,186.43z"/>
		</g>
	</g>
	<g>
		<g>
			<path class="st0" d="M256,203.5c-16.54,0-30,13.46-30,30s13.46,30,30,30s30-13.46,30-30S272.54,203.5,256,203.5z M256,243.5
				c-5.51,0-10-4.49-10-10s4.49-10,10-10s10,4.49,10,10S261.51,243.5,256,243.5z"/>
		</g>
	</g>
	<g>
		<g>
			<path class="st0" d="M256,153.5c-11.18,0-21.99,2.26-32.12,6.71c-5.06,2.22-7.35,8.12-5.13,13.18s8.12,7.35,13.18,5.13
				c7.58-3.33,15.69-5.02,24.08-5.02c33.08,0,60,26.92,60,60s-26.92,60-60,60s-60-26.92-60-60c0-0.34,0-0.68,0.01-1.02
				c0.13-5.52-4.24-10.1-9.76-10.23c-5.53-0.14-10.1,4.24-10.23,9.77C176,232.52,176,233,176,233.5c0,44.11,35.89,80,80,80
				s80-35.89,80-80S300.11,153.5,256,153.5z"/>
		</g>
	</g>
	<g>
		<g>
			<path class="st0" d="M256,3.5c-5.52,0-10,4.48-10,10v60c0,5.52,4.48,10,10,10c5.52,0,10-4.48,10-10v-60
				C266,7.98,261.52,3.5,256,3.5z"/>
		</g>
	</g>
	<g>
		<g>
			<path class="st0" d="M144.28,77.64l-42.42-42.42c-3.9-3.9-10.24-3.9-14.14,0c-3.9,3.9-3.9,10.24,0,14.14l42.42,42.42
				c3.9,3.9,10.24,3.91,14.14,0C148.19,87.88,148.19,81.54,144.28,77.64z"/>
		</g>
	</g>
	<g>
		<g>
			<path class="st0" d="M424.28,35.22c-3.9-3.9-10.24-3.9-14.14,0l-42.42,42.42c-3.9,3.9-3.9,10.24,0,14.14
				c3.9,3.9,10.24,3.91,14.14,0l42.42-42.42C428.19,45.46,428.19,39.12,424.28,35.22z"/>
		</g>
	</g>
	<g>
		<g>
			<path class="st0" d="M509.49,235.21C445.97,163.29,351.65,103.5,256,103.5c-95.66,0-189.98,59.81-253.49,131.71
				c-3.66,4.14-3.26,10.46,0.88,14.11c4.14,3.66,10.46,3.26,14.11-0.88c2.13-2.41,4.31-4.82,6.52-7.21
				C73.44,315.91,163.01,363.5,256,363.5s182.57-47.59,231.98-122.26c2.21,2.39,4.39,4.79,6.52,7.21c3.64,4.13,9.96,4.54,14.11,0.88
				C512.76,245.67,513.15,239.35,509.49,235.21z M256,343.5c-87.92,0-172.47-45.68-217.69-116.98
				C73.94,191.61,156.26,123.5,256,123.5c99.74,0,182.06,68.11,217.69,103.02C428.47,297.82,343.92,343.5,256,343.5z"/>
		</g>
	</g>
</g>
</svg>
