<?xml version="1.0" encoding="utf-8"?>
<!-- Generator: Adobe Illustrator 24.1.2, SVG Export Plug-In . SVG Version: 6.00 Build 0)  -->
<svg version="1.1" id="Capa_1" xmlns="http://www.w3.org/2000/svg" xmlns:xlink="http://www.w3.org/1999/xlink" x="0px" y="0px"
	 viewBox="0 0 377 512" style="enable-background:new 0 0 377 512;" xml:space="preserve">
<style type="text/css">
	.st0{fill:#F15A22;}
</style>
<g>
	<g>
		<path class="st0" d="M356.57,16.43C347.3,6.14,333.5,0,319.64,0H201.32c-3.53,0-6.8,1.86-8.6,4.9
			c-9.11,15.35-14.94,27.39-19.63,37.06c-11.81,24.38-12.81,26.45-36.95,26c-19.83-1.26-38.16,3.17-53.01,12.8
			c-13.84,8.98-24.13,21.96-29.74,37.53c-5.48,15.22-5.95,32.14-1.31,47.63c4.04,13.5,11.74,25.61,22.49,35.51
			c-1.93,3.13-3.31,6.4-4.02,9.7c-0.33,1.57-0.64,3.41-0.74,5.36C29.09,243.74,5.62,289.13,9.66,333.87
			c3.9,43.15,32.12,79.02,78,99.79c-9.03,19.56-13.88,49.87-2.66,72.75c1.68,3.42,5.16,5.6,8.98,5.6h73.58c5.52,0,10-4.48,10-10
			s-4.48-10-10-10h-66.82c-5.37-17.21-0.22-39.05,5.84-51.48c6.82,1.58,14.32,2.33,22.15,2.33c34.65,0,75.48-14.5,89.8-35.2
			c3.14-4.54,2.01-10.77-2.53-13.91c-4.54-3.14-10.77-2.01-13.91,2.53c-5.99,8.66-22.49,17.49-42.04,22.48
			c-20.86,5.33-41.29,5.57-54.64,0.63c-45.37-17.27-72.3-48.27-75.83-87.31c-3.39-37.54,16.7-75.85,51.51-99.07
			c4.16-0.25,22.02,3.62,22.02,3.62l174.35,39.94c50.16,60.92,62.67,131.49,38.11,215.44h-58.2c-5.52,0-10,4.48-10,10s4.48,10,10,10
			h65.62c4.37,0,8.23-2.83,9.54-7c15.81-50.31,19.27-97.45,10.29-140.08c-6.22-29.53-18.6-57.66-36.87-83.89
			c7.84-0.59,15.33-3.29,21.88-7.96c11.41-8.16,18.6-21.38,20.25-37.21l19.5-186.82C368.8,37.25,364.9,25.68,356.57,16.43
			L356.57,16.43z M207.07,20h64c-4.96,24.26-17.69,39.03-39.47,46.09c-15.43,5-33.85,5.54-51.43,4.79c3.7-5.31,6.9-11.9,10.93-20.21
			C195.1,42.41,199.97,32.36,207.07,20z M328.17,233.77c-1.05,10.06-5.31,18.23-11.99,23.01c-5.55,3.97-12.45,5.28-19.42,3.68
			l-194.37-44.53c-4.42-1.01-11.77-1.64-11.98-1.66c1.9-4.46,5.33-7.17,5.8-7.71c7.05-6.14,19.33-11.28,32.84-8.85l147.28,26.28
			c2.84,0.5,5.76-0.24,8.01-2.04c2.25-1.8,3.61-4.49,3.74-7.38l3.39-79.25l45.84,10.93L328.17,233.77z M347.67,46.94l-8.27,79.26
			l-55.09-13.14c-2.9-0.69-5.96-0.05-8.35,1.75c-2.38,1.8-3.84,4.57-3.96,7.55l-3.42,79.93l-136.02-24.27
			c-16.39-2.94-32.23,1.41-43.87,9.2c-18-16.27-24.48-39.95-16.48-62.16c7.02-19.49,27.24-39.48,62.86-37.13
			c0.06,0,0.13,0,0.19,0.01c0.02,0,0.04,0,0.06,0c5.84,0.24,12.41,0.76,19.37,1.31c11.58,0.91,24.46,1.93,37.56,1.93
			c15.44,0,31.19-1.41,45.51-6.05c29.86-9.68,47.86-31.58,53.63-65.12h28.25c8.29,0,16.54,3.67,22.07,9.81
			C346.19,34.79,348.31,40.88,347.67,46.94L347.67,46.94z"/>
		<path class="st0" d="M123.97,281.21c-6.98-5.73-15.69-8.76-24.85-8.61c-10.2,0.18-19.71,4.31-26.75,11.61
			c-14.61,15.11-14.2,39.29,0.93,53.92l43.74,42.18c1.94,1.87,4.44,2.8,6.94,2.8s5.01-0.93,6.94-2.8l43.71-42.18
			c7.31-7.05,11.44-16.56,11.62-26.77c0.18-10.21-3.61-19.85-10.65-27.14c-7.05-7.31-16.56-11.44-26.77-11.62
			C139.63,272.44,130.92,275.48,123.97,281.21L123.97,281.21z M166.24,311.01c-0.09,4.87-2.04,9.39-5.51,12.73l-36.77,35.48
			l-36.78-35.47c-7.19-6.95-7.39-18.45-0.43-25.64c3.34-3.46,7.85-5.42,12.71-5.5c0.11,0,0.22,0,0.33,0c4.74,0,9.19,1.79,12.58,5.06
			l4.65,4.48c3.87,3.73,10,3.73,13.88,0l4.66-4.49c3.45-3.34,8.04-5.13,12.89-5.04c4.87,0.08,9.39,2.04,12.74,5.51
			C164.54,301.57,166.33,306.14,166.24,311.01L166.24,311.01z"/>
		<path class="st0" d="M212.46,492c-5.52,0-10,4.48-10,10s4.48,10,10,10h0.06c5.52,0,9.97-4.48,9.97-10S217.99,492,212.46,492z"/>
	</g>
</g>
</svg>
