<svg xmlns="http://www.w3.org/2000/svg" width="85.735" height="79.75" viewBox="0 0 85.735 79.75"><defs><style>.a{fill:#f15a22;}</style></defs><path class="a" d="M65.531,1.963A15.269,15.269,0,0,0,50.664,16.775c-.107,2.844,1.168,5.783,2.516,8.894.479,1.1.959,2.222,1.389,3.349-3.974-1.667-6.957-8.323-6.957-12.878a1.525,1.525,0,1,0-3.05,0c0,6.2,4.435,15.219,10.711,16.223a1.482,1.482,0,0,0,.407.332c.031.143.063.287.088.43a16.8,16.8,0,0,0-12.732,9.618,16.8,16.8,0,0,0-13.063-9.668c.044-.238.1-.474.156-.712,6.379-1.011,11.382-10.139,11.382-16.223a1.525,1.525,0,1,0-3.05,0c0,4.654-3.363,10.817-7.222,12.692.412-1.064.863-2.12,1.316-3.163,1.35-3.111,2.624-6.05,2.516-8.894A15.269,15.269,0,0,0,20.206,1.963C9.064,1.963,0,17.013,0,35.512S9.064,69.061,20.206,69.061c4.105,0,11.75,0,14.781-8.645,1.2-3.42-.325-7.471-2.091-12.162-1.412-3.75-2.987-7.974-3.132-12.133A13.733,13.733,0,0,1,41.511,49.688v30.5a1.525,1.525,0,1,0,3.05,0v-30.5A13.734,13.734,0,0,1,55.968,36.176c-.157,4.142-1.723,8.346-3.129,12.081-1.766,4.689-3.291,8.74-2.091,12.162,3.033,8.645,10.676,8.645,14.781,8.645,11.141,0,20.206-15.05,20.206-33.549S76.67,1.963,65.531,1.963ZM32.111,59.407c-2.138,6.1-7.053,6.6-11.905,6.6-9.459,0-17.156-13.682-17.156-30.5s7.7-30.5,17.156-30.5a12.341,12.341,0,0,1,11.82,11.875c.081,2.153-1.06,4.784-2.268,7.567-.122.282-.246.57-.369.859-2.144-5.278-7.126-9.174-12.613-9.174a1.525,1.525,0,1,0,0,3.05c5.485,0,10.48,5.4,10.658,11.42a20.822,20.822,0,0,0-.528,2.4H18.3a1.525,1.525,0,0,0,0,3.05h8.392c-.044,5.868-4.015,12.108-9.917,12.108a1.525,1.525,0,1,0,0,3.05c5.086,0,9.066-3.4,11.212-7.808.61,2.063,1.35,4.052,2.056,5.924C31.535,53.29,32.944,57.031,32.111,59.407Zm33.42,6.6c-4.851,0-9.764-.509-11.905-6.6-.833-2.376.576-6.117,2.068-10.077.706-1.874,1.447-3.864,2.057-5.929,2.394,4.572,6.975,7.812,11.979,7.812a1.525,1.525,0,0,0,0-3.05c-5.586,0-10.675-5.6-10.675-11.748a1.52,1.52,0,0,0-.037-.185c0-.088.009-.177.012-.267h9.176a1.525,1.525,0,1,0,0-3.05H58.819a22.425,22.425,0,0,0-.743-3.1c.752-5.22,5.086-10.629,10.547-10.629a1.525,1.525,0,0,0,0-3.05c-5.589,0-10.159,4.081-12.34,9.025-.1-.236-.2-.477-.3-.709-1.208-2.783-2.348-5.414-2.268-7.567A12.341,12.341,0,0,1,65.531,5.013c9.459,0,17.156,13.682,17.156,30.5S74.99,66.011,65.531,66.011Z" transform="translate(0 -1.963)"/></svg>